<?xml version="1.0" standalone="no"?>
<!DOCTYPE svg PUBLIC "-//W3C//DTD SVG 20010904//EN"
 "http://www.w3.org/TR/2001/REC-SVG-20010904/DTD/svg10.dtd">
<svg version="1.0" xmlns="http://www.w3.org/2000/svg"
 width="360.000000pt" height="63.000000pt" viewBox="0 0 360.000000 63.000000"
 preserveAspectRatio="xMidYMid meet">
<metadata>
Created by potrace 1.10, written by Peter Selinger 2001-2011
</metadata>
<g transform="translate(0.000000,63.000000) scale(0.100000,-0.100000)"
fill="#000000" stroke="none">
<path d="M650 515 l0 -45 45 0 c32 0 47 5 51 15 6 14 8 13 20 -2 10 -15 16
-16 32 -7 10 7 30 10 44 7 23 -4 25 -2 21 21 -4 20 -16 29 -55 42 -57 18 -92
10 -103 -26 -8 -26 -25 -16 -25 16 0 15 -6 24 -15 24 -11 0 -15 -12 -15 -45z"/>
<path d="M884 538 c3 -13 6 -26 6 -30 0 -3 20 -14 45 -23 33 -13 58 -16 98
-11 49 6 55 5 60 -13 5 -21 37 -30 37 -11 0 12 29 24 77 33 27 5 32 3 35 -16
4 -29 38 -35 45 -8 6 24 11 25 46 12 17 -7 30 -6 43 3 33 22 71 28 78 11 8
-21 31 -19 47 5 10 14 18 17 29 10 12 -7 12 -12 2 -22 -6 -6 -12 -18 -12 -25
0 -23 35 -14 65 17 32 34 47 37 65 15 10 -12 29 -15 79 -13 66 3 66 3 66 33 0
39 -38 50 -78 22 l-28 -19 -26 26 c-28 28 -43 32 -60 15 -30 -30 -122 -27
-172 5 -9 6 -18 4 -26 -7 -15 -21 -25 -21 -40 0 -11 15 -15 15 -30 3 -9 -8
-21 -25 -26 -39 l-10 -24 -15 21 c-8 12 -22 22 -31 22 -9 0 -25 8 -35 17 -17
15 -20 15 -46 -3 -32 -24 -74 -24 -101 0 -19 17 -20 17 -41 -4 -22 -22 -51
-20 -81 6 -8 8 -28 14 -43 14 -24 0 -28 -3 -22 -22z"/>
<path d="M23 538 c-19 -9 -23 -19 -23 -55 0 -39 2 -43 24 -43 19 0 25 6 28 28
l3 27 223 3 c163 2 222 -1 222 -9 0 -7 -17 -31 -37 -53 -68 -76 -80 -92 -111
-157 -38 -77 -53 -133 -59 -216 l-5 -63 31 0 31 0 0 73 c1 50 7 84 20 112 11
22 19 48 20 58 0 9 5 17 10 17 6 0 10 6 10 13 0 8 16 36 35 63 19 27 40 58 47
68 7 11 24 29 37 40 90 76 89 91 -7 100 -111 10 -475 6 -499 -6z"/>
<path d="M2685 450 c-4 -6 -8 -70 -9 -141 -1 -111 1 -132 14 -139 35 -19 45 4
41 97 -1 48 -4 110 -4 138 -2 37 -6 50 -19 53 -9 2 -19 -2 -23 -8z"/>
<path d="M1839 392 c-11 -7 -19 -19 -19 -27 0 -20 50 -27 163 -23 l102 3 3
-172 2 -173 31 0 30 0 -2 165 c-1 91 1 169 5 173 4 3 58 5 119 4 127 -4 160 7
133 43 -14 19 -27 20 -281 20 -204 0 -272 -3 -286 -13z"/>
<path d="M2540 384 c-55 -30 -78 -55 -107 -115 -27 -55 -29 -88 -6 -137 21
-47 82 -112 104 -112 10 0 21 -4 24 -10 4 -6 61 -10 139 -10 149 0 173 7 231
68 102 104 52 268 -101 331 -26 10 -36 10 -53 -1 -35 -22 -26 -45 20 -53 31
-5 54 -19 85 -51 41 -41 44 -47 44 -99 0 -30 -4 -55 -10 -55 -5 0 -12 -10 -15
-23 -10 -40 -65 -68 -148 -74 -124 -9 -178 2 -226 47 -40 38 -41 41 -41 106 0
65 1 68 40 106 28 26 50 38 69 38 38 0 56 22 41 49 -14 27 -34 26 -90 -5z"/>
<path d="M2970 399 c0 -18 20 -49 32 -49 5 0 38 -22 73 -49 34 -27 76 -56 93
-65 38 -19 41 -46 10 -70 -84 -60 -130 -96 -168 -128 l-44 -38 35 0 c25 0 53
14 109 55 41 29 86 64 100 77 42 40 47 40 94 -1 92 -79 172 -131 205 -131 37
0 38 8 5 35 -14 11 -34 28 -46 37 -12 10 -27 18 -35 18 -7 0 -13 3 -13 8 0 4
-25 25 -55 46 -56 40 -70 71 -37 83 19 7 104 64 113 76 3 4 25 18 50 31 32 18
45 31 47 50 5 41 -32 33 -102 -21 -34 -26 -65 -51 -71 -55 -5 -4 -29 -23 -51
-42 -47 -41 -73 -45 -99 -16 -9 10 -59 51 -109 90 -85 64 -136 87 -136 59z"/>
<path d="M612 388 c-15 -15 -17 -340 -2 -369 10 -18 23 -19 220 -19 193 0 214
2 255 21 57 27 81 57 101 126 15 52 12 113 -6 113 -5 0 -11 13 -15 28 -8 37
-66 84 -123 99 -64 17 -413 18 -430 1z m410 -44 c42 -7 84 -42 117 -97 23 -37
23 -39 7 -81 -9 -23 -34 -60 -57 -82 l-40 -39 -197 0 -197 0 -3 140 c-1 76 0
145 2 152 4 10 44 13 168 13 90 0 180 -3 200 -6z"/>
<path d="M1361 386 c-47 -10 -111 -64 -111 -93 0 -9 -7 -25 -17 -35 -23 -26
-18 -99 11 -156 20 -39 35 -53 80 -75 54 -27 56 -27 270 -27 181 0 216 2 216
14 0 8 -6 18 -12 23 -7 4 -94 6 -193 4 -110 -2 -196 1 -220 8 -44 11 -101 64
-107 96 -3 19 4 20 262 25 264 5 265 5 268 27 5 33 -23 37 -284 31 -150 -4
-236 -2 -242 4 -15 15 -4 39 36 76 l36 32 218 0 c186 0 219 2 224 15 4 8 1 22
-6 30 -9 11 -46 14 -198 12 -103 0 -207 -5 -231 -11z"/>
</g>
</svg>
