<?xml version="1.0" standalone="no"?>
<!DOCTYPE svg PUBLIC "-//W3C//DTD SVG 20010904//EN"
 "http://www.w3.org/TR/2001/REC-SVG-20010904/DTD/svg10.dtd">
<svg version="1.0" xmlns="http://www.w3.org/2000/svg"
 width="600.000000pt" height="102.000000pt" viewBox="0 0 600.000000 102.000000"
 preserveAspectRatio="xMidYMid meet">
<metadata>
Created by potrace 1.10, written by Peter Selinger 2001-2011
</metadata>
<g transform="translate(0.000000,102.000000) scale(0.100000,-0.100000)"
fill="#000000" stroke="none">
<path d="M497 902 l-478 -2 3 -93 3 -92 35 0 c34 0 35 1 36 43 1 24 5 47 10
52 5 5 179 10 387 12 350 3 377 2 377 -14 0 -10 -8 -23 -17 -30 -9 -7 -50 -46
-90 -87 -155 -158 -262 -404 -263 -603 l0 -88 40 0 c22 0 40 1 41 3 0 1 2 42
5 92 4 111 26 190 86 320 61 130 184 282 283 351 54 36 55 39 55 84 0 37 -4
48 -17 51 -10 2 -233 3 -496 1z"/>
<path d="M1207 893 c-19 -22 -32 -88 -19 -97 18 -11 42 6 42 30 0 13 5 24 10
24 6 0 10 14 10 30 0 34 -18 40 -43 13z"/>
<path d="M1100 846 c0 -57 15 -80 46 -74 25 5 28 25 4 31 -16 4 -20 13 -20 51
0 34 -4 46 -15 46 -11 0 -15 -13 -15 -54z"/>
<path d="M1506 881 c-10 -11 -16 -31 -14 -47 3 -26 0 -29 -29 -32 -39 -4 -44
15 -13 43 24 22 26 45 4 45 -20 0 -53 -39 -54 -63 0 -10 7 -20 15 -23 8 -4 15
-12 15 -20 0 -9 11 -14 29 -14 22 0 39 11 70 46 47 53 48 59 22 74 -25 13 -25
13 -45 -9z"/>
<path d="M1640 876 c0 -8 7 -16 15 -20 8 -3 15 -17 15 -31 0 -16 -6 -25 -15
-25 -8 0 -15 -7 -15 -15 0 -31 48 -16 94 30 26 25 49 45 51 45 3 0 5 -14 5
-31 0 -22 5 -32 19 -36 11 -3 21 -15 23 -26 5 -34 29 -31 88 12 68 49 100 80
100 98 0 17 -25 17 -43 -1 -7 -8 -30 -14 -51 -14 -23 0 -39 5 -43 14 -7 18
-27 18 -43 -1 -7 -8 -20 -15 -30 -15 -10 0 -20 7 -24 15 -7 20 -25 19 -48 -2
-18 -16 -21 -16 -47 0 -35 21 -51 22 -51 3z m245 -36 c9 -27 -1 -40 -31 -40
-26 0 -30 11 -14 41 14 25 37 24 45 -1z"/>
<path d="M2070 875 c-7 -8 -19 -15 -26 -15 -18 0 -19 -56 -1 -67 6 -4 17 -17
23 -28 15 -28 36 -29 62 -5 29 27 30 88 2 113 -25 21 -44 22 -60 2z m48 -48
c3 -23 0 -27 -22 -27 -28 0 -36 26 -14 48 18 18 33 9 36 -21z"/>
<path d="M2222 867 c-15 -16 -22 -36 -22 -65 0 -45 12 -52 52 -31 l20 11 -20
18 c-22 21 -19 60 4 60 8 0 14 7 14 15 0 22 -23 18 -48 -8z"/>
<path d="M2377 870 c-20 -24 -21 -40 -5 -75 12 -27 48 -35 48 -10 0 8 -6 15
-14 15 -19 0 -28 14 -20 34 9 24 31 19 38 -9 5 -18 13 -25 31 -25 20 0 25 -5
25 -25 0 -19 5 -25 23 -25 28 1 51 18 81 63 27 39 20 57 -21 57 -13 0 -32 6
-44 13 -17 10 -22 9 -33 -5 -16 -22 -55 -23 -62 -3 -8 21 -26 19 -47 -5z m156
-32 c8 -29 1 -38 -29 -38 -26 0 -33 27 -12 48 18 18 35 14 41 -10z"/>
<path d="M2644 865 c-19 -29 -12 -44 10 -26 19 16 36 6 36 -21 0 -17 -4 -19
-26 -14 -21 6 -25 4 -22 -11 5 -27 34 -27 70 0 18 13 52 27 76 30 39 5 44 3
53 -19 12 -33 29 -21 29 20 0 43 -33 75 -59 59 -14 -9 -21 -9 -29 -1 -9 9 -17
7 -30 -5 -23 -21 -51 -22 -58 -2 -9 23 -32 18 -50 -10z"/>
<path d="M1282 864 c-7 -3 -17 -15 -23 -25 -8 -16 -6 -24 13 -39 32 -27 62
-25 78 6 23 42 -19 78 -68 58z"/>
<path d="M2293 863 c-19 -7 -16 -60 4 -67 22 -9 33 4 36 40 2 28 -13 39 -40
27z"/>
<path d="M1580 830 c0 -23 5 -30 19 -30 24 0 39 39 20 51 -26 16 -39 9 -39
-21z"/>
<path d="M4472 741 c-11 -7 -14 -55 -14 -225 -1 -133 3 -221 9 -227 6 -6 26
-9 44 -7 l34 3 1 227 c1 223 1 226 -20 232 -28 8 -39 7 -54 -3z"/>
<path d="M3522 653 l-473 -3 3 -43 3 -42 217 0 c119 0 219 -3 223 -6 3 -4 6
-131 5 -283 l-1 -276 41 0 c31 0 40 4 40 18 1 9 2 136 3 282 l2 265 209 -3
c115 -1 217 0 228 3 24 8 26 80 2 89 -9 3 -19 5 -22 4 -4 -2 -220 -4 -480 -5z"/>
<path d="M4315 650 c-106 -19 -196 -88 -245 -187 -25 -53 -30 -73 -30 -138 0
-65 5 -85 31 -138 32 -66 77 -113 143 -149 39 -22 51 -23 291 -23 l250 0 55
36 c79 52 99 77 144 182 39 92 1 240 -84 321 -54 53 -138 93 -201 97 l-54 4 0
-45 0 -45 45 -6 c94 -13 163 -63 200 -146 38 -86 16 -186 -56 -258 -66 -66
-80 -70 -284 -73 -171 -3 -189 -2 -233 18 -106 47 -157 120 -157 226 0 72 14
106 65 162 41 46 80 65 145 72 l55 5 3 43 c2 23 -1 42 -7 42 -5 0 -15 2 -23 4
-7 2 -31 0 -53 -4z"/>
<path d="M4928 654 c-15 -14 -8 -21 55 -59 34 -21 105 -71 157 -110 52 -39
123 -89 158 -110 39 -24 62 -44 60 -53 -2 -9 -23 -27 -48 -40 -25 -14 -73 -46
-107 -71 -69 -52 -74 -56 -197 -143 l-89 -63 61 -3 c57 -3 66 0 119 36 122 82
254 176 278 198 54 50 51 50 201 -62 76 -58 166 -120 198 -140 53 -31 65 -35
119 -32 l61 3 -80 54 c-43 30 -113 80 -154 111 -74 56 -146 105 -185 125 -23
12 -33 55 -13 55 8 0 68 38 133 85 109 76 233 161 282 191 33 21 1 37 -64 32
-55 -4 -65 -9 -158 -79 -55 -41 -113 -83 -130 -93 -16 -11 -55 -41 -86 -68
-31 -26 -62 -48 -67 -48 -6 0 -19 8 -29 18 -23 24 -220 172 -228 172 -4 0 -34
21 -66 47 -53 41 -67 47 -117 51 -31 2 -60 0 -64 -4z"/>
<path d="M1010 386 c0 -144 3 -291 6 -325 6 -55 9 -61 30 -61 12 0 26 5 29 10
4 7 125 10 355 9 l348 -1 61 32 c117 63 170 192 142 348 -19 106 -64 163 -174
221 l-57 31 -370 0 -370 0 0 -264z m760 156 c92 -42 143 -121 143 -222 0 -73
-21 -116 -84 -177 -63 -60 -75 -62 -413 -64 -169 0 -309 1 -312 4 -7 7 -7 465
0 476 3 5 140 7 313 6 285 -3 311 -5 353 -23z"/>
<path d="M2225 619 c-71 -36 -119 -79 -148 -134 -19 -35 -22 -56 -22 -160 0
-104 3 -125 22 -160 27 -50 75 -95 132 -124 43 -22 53 -22 345 -21 195 0 327
-4 374 -12 63 -10 75 -10 82 2 14 22 12 70 -2 71 -7 0 -161 0 -342 -1 -398 -1
-407 0 -492 93 -39 44 -54 68 -54 89 l0 30 448 -3 447 -2 0 39 0 39 -365 3
c-201 1 -396 -2 -433 -7 -38 -5 -75 -7 -83 -4 -48 18 31 136 122 184 37 20 55
21 384 20 190 0 351 3 358 8 8 5 12 22 10 42 l-3 34 -360 2 -360 2 -60 -30z"/>
</g>
</svg>
