<?xml version="1.0" standalone="no"?>
<!DOCTYPE svg PUBLIC "-//W3C//DTD SVG 20010904//EN"
 "http://www.w3.org/TR/2001/REC-SVG-20010904/DTD/svg10.dtd">
<svg version="1.0" xmlns="http://www.w3.org/2000/svg"
 width="840.000000pt" height="144.000000pt" viewBox="0 0 840.000000 144.000000"
 preserveAspectRatio="xMidYMid meet">
<metadata>
Created by potrace 1.10, written by Peter Selinger 2001-2011
</metadata>
<g transform="translate(0.000000,144.000000) scale(0.100000,-0.100000)"
fill="#000000" stroke="none">
<path d="M1547 1284 c-4 -4 -7 -44 -7 -89 0 -94 10 -111 60 -100 21 5 30 3 31
-7 1 -7 2 -22 3 -33 0 -13 8 -20 21 -20 15 0 20 7 20 29 0 16 6 31 13 33 8 3
12 26 12 65 0 51 -2 59 -17 56 -14 -3 -18 -13 -18 -43 0 -40 0 -40 -40 -40
l-40 0 0 75 c0 59 -3 75 -15 78 -9 1 -19 0 -23 -4z"/>
<path d="M1667 1284 c-16 -16 -6 -35 16 -32 12 2 22 10 22 18 0 16 -26 25 -38
14z"/>
<path d="M1760 1281 c0 -5 -8 -17 -17 -27 -14 -14 -17 -31 -14 -83 5 -109 36
-105 36 4 0 54 2 60 22 63 26 4 47 27 38 42 -8 12 -65 13 -65 1z"/>
<path d="M2115 1278 c-2 -7 -3 -51 -2 -98 2 -78 4 -85 22 -85 18 0 20 7 20 60
0 57 1 60 25 60 23 0 25 -4 26 -50 1 -70 2 -75 19 -75 17 0 18 7 15 73 -2 51
-32 97 -64 97 -9 0 -19 7 -22 15 -7 18 -33 20 -39 3z"/>
<path d="M2717 1284 c-16 -16 -6 -35 16 -32 12 2 22 10 22 18 0 16 -26 25 -38
14z"/>
<path d="M24 1148 l1 -133 55 0 55 0 3 73 3 72 478 0 c263 0 506 3 539 6 80 9
91 -10 35 -58 -61 -52 -173 -171 -179 -190 -3 -10 -23 -36 -45 -59 -21 -22
-42 -52 -45 -65 -3 -13 -10 -24 -15 -24 -4 0 -27 -38 -50 -85 -22 -47 -45 -88
-50 -91 -5 -3 -9 -18 -9 -33 0 -16 -7 -34 -15 -41 -8 -7 -15 -20 -15 -30 0
-10 -7 -31 -15 -46 -8 -16 -15 -45 -15 -64 0 -20 -5 -41 -11 -47 -16 -16 -33
-281 -20 -310 13 -27 59 -31 95 -8 22 14 23 21 24 158 2 113 5 144 17 153 8 6
15 26 15 45 0 19 7 43 15 53 8 11 15 33 15 48 0 16 7 31 15 34 8 4 15 16 15
29 0 12 7 28 15 35 8 7 15 20 15 30 0 10 7 23 15 30 8 7 15 20 15 30 0 10 7
20 15 24 8 3 15 14 15 25 0 11 13 35 30 53 16 18 30 38 30 44 0 7 31 45 70 86
38 40 73 81 76 91 8 25 37 53 62 61 12 4 44 28 71 54 l51 48 0 67 0 67 -689 0
-688 0 1 -132z"/>
<path d="M1842 1233 c-19 -21 -22 -35 -20 -82 l3 -56 43 -3 c25 -2 42 1 42 7
0 6 1 14 2 19 1 4 -11 9 -28 12 -36 6 -38 24 -3 28 22 3 28 9 32 39 11 64 -29
84 -71 36z m29 -26 c-1 -12 -15 -9 -19 4 -3 6 1 10 8 8 6 -3 11 -8 11 -12z"/>
<path d="M1983 1230 c-30 -37 -29 -78 2 -113 18 -21 33 -27 52 -25 41 5 43 36
4 44 -27 6 -31 11 -31 40 0 27 4 34 19 34 22 0 45 25 36 40 -13 20 -60 9 -82
-20z"/>
<path d="M2293 1234 c-26 -29 -31 -88 -9 -110 8 -7 17 -19 19 -26 4 -9 12 -5
25 11 l20 24 11 -22 c18 -33 31 -15 31 44 0 43 -5 59 -24 79 -29 32 -45 32
-73 0z m65 -37 c4 -19 -37 -69 -50 -61 -10 6 -10 68 -1 78 13 13 48 1 51 -17z"/>
<path d="M2424 1247 c-9 -24 0 -152 11 -150 6 2 12 28 15 58 6 70 24 76 28 10
3 -66 9 -80 25 -67 12 11 14 132 2 152 -9 15 -75 12 -81 -3z"/>
<path d="M2600 1253 c0 -5 -14 -22 -30 -40 -17 -18 -30 -34 -30 -38 0 -3 21
-25 47 -50 38 -37 43 -46 29 -51 -11 -4 -26 2 -40 15 -20 19 -25 20 -35 7 -10
-11 -7 -19 14 -40 31 -31 71 -34 80 -7 3 11 11 21 18 24 17 6 10 87 -8 87 -7
0 -16 -7 -19 -16 -5 -14 -10 -13 -30 7 -24 23 -24 24 -6 41 11 10 22 18 25 18
16 0 75 -70 75 -89 0 -17 6 -21 30 -21 30 0 30 0 30 60 0 45 -4 60 -14 60 -8
0 -16 -7 -20 -15 -10 -26 -42 -16 -67 20 -22 31 -49 47 -49 28z"/>
<path d="M2784 1247 c-9 -24 0 -152 11 -150 6 2 12 28 15 58 6 70 24 76 28 10
3 -66 9 -80 25 -67 12 11 14 132 2 152 -9 15 -75 12 -81 -3z"/>
<path d="M2933 1220 c-18 -20 -33 -40 -33 -44 0 -3 21 -26 47 -51 38 -37 43
-46 29 -51 -11 -4 -26 2 -40 15 -20 19 -25 20 -35 7 -10 -11 -7 -19 14 -40 33
-33 60 -33 90 2 18 20 23 34 19 55 -4 20 0 32 15 45 21 17 20 17 -20 60 -22
23 -43 42 -47 41 -4 0 -22 -18 -39 -39z m63 -24 c18 -18 18 -22 -3 -45 -16
-20 -17 -20 -39 2 -21 20 -22 23 -6 39 21 21 30 22 48 4z"/>
<path d="M3111 1247 c-16 -20 -11 -178 7 -184 7 -3 20 4 28 16 9 12 20 19 25
15 6 -3 26 11 44 32 35 39 39 38 47 -11 2 -14 11 -20 28 -20 23 0 25 4 30 60
5 56 7 60 30 60 23 0 25 -3 25 -52 0 -62 17 -87 35 -52 l12 22 20 -24 c12 -15
21 -20 24 -12 3 6 16 24 29 39 20 24 25 26 30 11 4 -9 5 -20 2 -24 -3 -4 10
-24 29 -43 19 -19 34 -38 34 -42 0 -19 48 -6 70 19 18 20 23 37 21 63 -4 44
-7 47 -29 27 -16 -15 -19 -14 -39 7 -22 22 -22 23 -2 39 10 9 22 17 25 17 15
0 74 -70 74 -88 0 -22 36 -40 50 -25 5 4 10 33 12 63 3 51 5 55 28 55 18 0 26
-6 28 -23 2 -13 16 -36 32 -52 15 -15 30 -34 33 -42 4 -9 11 -6 25 11 l20 24
11 -22 c18 -33 31 -15 31 44 0 43 -5 59 -24 79 -28 31 -56 33 -63 6 -7 -25
-14 -25 -36 1 -14 16 -27 19 -65 17 -43 -3 -47 -5 -52 -33 -8 -45 -41 -45 -71
-1 -13 20 -28 36 -34 36 -5 0 -21 -16 -35 -35 -19 -26 -32 -34 -55 -34 -23 0
-36 8 -55 34 -29 40 -35 42 -51 14 l-11 -21 -20 22 c-16 17 -29 20 -66 18 -43
-3 -47 -5 -52 -33 -8 -44 -36 -44 -72 -1 -23 28 -37 36 -63 36 -18 0 -38 -6
-44 -13z m92 -49 l26 -23 -24 -23 c-32 -30 -59 -25 -63 11 -7 60 17 73 61 35z
m274 -44 l-21 -22 -22 21 -22 21 21 22 21 22 22 -21 22 -21 -21 -22z m471 43
c4 -19 -37 -69 -50 -61 -10 6 -10 68 -1 78 13 13 48 1 51 -17z m-305 -119 c-9
-15 -38 -7 -60 16 -23 24 -29 47 -17 59 8 8 84 -65 77 -75z"/>
<path d="M4035 1240 c-3 -11 -11 -20 -16 -20 -6 0 -9 -26 -7 -62 4 -77 21 -79
28 -3 6 71 24 72 28 1 3 -55 16 -72 47 -60 9 4 15 24 17 60 4 72 22 70 28 -3
4 -43 9 -58 20 -58 11 0 16 14 18 53 2 43 -1 58 -20 82 -27 34 -44 38 -53 10
-3 -11 -15 -20 -25 -20 -10 0 -22 9 -25 20 -3 11 -12 20 -20 20 -8 0 -17 -9
-20 -20z"/>
<path d="M6237 1033 c-3 -5 -1 -33 4 -63 7 -43 5 -316 -5 -530 -1 -24 1 -25
72 -28 l72 -3 0 316 0 315 -69 0 c-39 0 -72 -3 -74 -7z"/>
<path d="M6902 922 c-21 -7 -13 -32 11 -32 12 0 35 -14 51 -30 16 -17 37 -30
47 -30 10 0 39 -20 63 -45 25 -25 52 -45 60 -45 8 0 35 -20 62 -45 26 -25 54
-45 63 -45 9 -1 27 -14 41 -30 13 -17 32 -30 41 -30 10 0 36 -18 59 -40 23
-22 49 -40 59 -40 50 0 54 -56 6 -89 -19 -13 -35 -27 -35 -32 0 -5 -10 -9 -23
-9 -12 0 -34 -13 -48 -29 -14 -15 -35 -31 -47 -35 -12 -4 -40 -25 -63 -47 -22
-21 -46 -39 -53 -39 -7 0 -34 -20 -60 -45 -27 -25 -56 -45 -65 -45 -9 0 -28
-13 -41 -30 -14 -16 -32 -29 -40 -30 -8 0 -35 -18 -60 -41 l-45 -41 82 7 c137
11 107 -6 490 277 80 60 149 108 153 108 4 0 73 -48 153 -108 384 -283 354
-267 490 -277 l82 -6 -45 40 c-25 23 -52 41 -60 41 -8 1 -26 14 -40 30 -13 17
-32 30 -42 30 -10 0 -38 20 -62 45 -25 25 -52 45 -60 45 -8 0 -35 20 -62 45
-26 25 -54 45 -63 45 -9 1 -27 14 -41 30 -14 17 -34 30 -47 30 -13 0 -23 4
-23 9 0 5 -16 19 -35 32 -48 33 -44 89 6 89 10 0 36 18 59 40 23 22 49 40 59
40 9 0 28 13 41 30 14 16 32 29 41 30 9 0 37 20 63 45 27 25 56 45 65 45 9 0
28 12 41 28 14 15 42 36 62 46 21 10 50 32 65 47 16 16 38 29 51 29 17 0 22 5
20 18 -3 15 -14 17 -98 13 -90 -3 -96 -5 -122 -32 -15 -16 -33 -29 -41 -29 -8
0 -35 -20 -61 -45 -27 -25 -56 -45 -65 -45 -9 0 -28 -13 -41 -30 -14 -16 -32
-29 -41 -30 -9 0 -37 -20 -63 -45 -27 -25 -54 -45 -61 -45 -7 0 -36 -23 -64
-50 -28 -28 -56 -50 -62 -50 -6 0 -32 23 -59 50 -27 28 -55 50 -63 50 -8 0
-36 20 -63 45 -26 25 -54 45 -63 45 -9 1 -27 14 -41 30 -13 17 -32 30 -42 30
-10 0 -38 20 -62 45 -25 25 -53 45 -61 45 -9 0 -28 13 -43 29 -25 27 -34 29
-113 33 -47 2 -91 2 -97 0z"/>
<path d="M1430 473 c0 -247 4 -454 9 -462 8 -12 15 -12 45 3 32 15 83 17 523
16 521 -2 493 -4 585 46 54 29 132 113 153 164 4 8 12 26 19 40 24 48 41 195
28 251 -7 28 -12 61 -12 74 0 12 -7 28 -15 35 -8 7 -15 21 -15 32 0 27 -162
188 -188 188 -11 0 -22 7 -26 15 -3 8 -16 15 -29 15 -14 0 -30 7 -37 15 -11
13 -82 15 -526 15 l-514 0 0 -447z m1015 313 c17 -8 37 -17 45 -21 18 -7 48
-25 76 -45 24 -17 83 -108 103 -160 8 -19 16 -52 18 -73 6 -42 -24 -165 -44
-185 -7 -7 -13 -18 -13 -24 0 -15 -109 -118 -125 -118 -8 0 -15 -4 -15 -8 0
-21 -168 -31 -544 -34 l-399 -2 -1 342 c-1 188 2 343 6 344 5 2 200 2 435 0
345 -2 434 -5 458 -16z"/>
<path d="M3180 905 c-7 -8 -23 -15 -37 -15 -13 0 -26 -7 -29 -15 -4 -8 -15
-15 -27 -15 -25 0 -187 -164 -187 -189 0 -9 -5 -22 -12 -29 -17 -17 -38 -188
-27 -225 5 -18 9 -47 9 -66 0 -51 55 -154 111 -209 27 -27 77 -63 112 -81 l62
-32 501 -2 c406 -2 504 -5 517 -16 31 -25 47 -6 47 56 l0 58 -447 -3 c-311 -3
-468 0 -515 8 -108 19 -177 61 -231 142 -31 48 -62 126 -53 136 4 3 1139 2
1211 -2 30 -1 30 -1 33 59 l3 60 -418 -3 c-230 -1 -509 -3 -621 -5 -128 -1
-203 2 -205 8 -13 35 53 142 122 199 88 73 69 70 624 73 l497 3 0 60 0 60
-514 0 c-444 0 -515 -2 -526 -15z"/>
<path d="M4280 859 l0 -60 298 1 c163 1 304 1 312 1 13 -1 15 -48 12 -377 -2
-207 -1 -387 2 -400 5 -20 12 -24 44 -24 20 1 46 8 57 18 20 17 20 26 15 392
-3 206 -2 379 2 384 3 4 148 7 322 7 l316 -2 0 61 0 60 -690 0 -690 0 0 -61z"/>
<path d="M5984 905 c-10 -8 -26 -15 -34 -15 -9 0 -51 -23 -93 -51 -57 -37 -77
-56 -77 -72 0 -13 -9 -26 -22 -32 -25 -12 -50 -54 -78 -133 -25 -71 -28 -227
-5 -258 8 -10 15 -31 15 -45 0 -15 7 -32 15 -39 8 -7 15 -20 15 -29 0 -9 13
-28 28 -41 15 -14 31 -33 35 -43 3 -9 18 -22 32 -29 14 -6 25 -15 25 -19 0
-13 122 -69 152 -69 16 0 31 -6 34 -15 9 -21 97 -21 115 1 11 14 38 15 193 12
132 -2 180 -6 184 -15 4 -14 92 -18 92 -5 0 5 19 16 43 26 72 29 109 50 114
63 3 7 11 13 18 13 11 0 25 15 88 90 13 16 34 50 40 65 2 6 10 26 17 45 8 19
16 86 18 148 3 91 0 118 -12 137 -9 14 -16 33 -16 43 0 11 -7 25 -15 32 -8 7
-15 20 -15 29 0 29 -138 161 -168 161 -5 0 -15 7 -22 15 -7 8 -23 15 -35 15
-12 0 -28 7 -35 15 -9 11 -35 15 -101 15 l-89 0 0 -60 0 -60 63 0 c40 0 70 -5
83 -15 10 -8 33 -15 50 -15 24 0 43 -12 80 -49 27 -26 58 -65 69 -86 11 -20
25 -40 32 -42 21 -8 17 -201 -4 -249 -28 -62 -83 -131 -127 -161 -23 -15 -43
-31 -46 -34 -14 -17 -190 -31 -361 -27 -151 2 -189 0 -200 -11 -11 -12 -15
-11 -27 7 -10 16 -25 22 -51 22 -27 1 -42 8 -61 30 -13 17 -32 30 -42 30 -26
0 -58 36 -58 64 0 13 -7 29 -15 36 -8 7 -15 19 -15 27 0 7 -7 16 -15 19 -12 5
-15 28 -15 124 0 96 3 119 15 124 8 3 15 16 15 29 0 16 9 28 25 35 14 6 25 16
25 20 0 12 47 62 58 62 4 0 13 5 19 11 23 23 118 49 175 49 l58 0 0 60 0 60
-83 0 c-58 0 -89 -5 -103 -15z"/>
</g>
</svg>
